<?xml version="1.0" encoding="utf-8"?>
<!-- Generator: Adobe Illustrator 16.0.0, SVG Export Plug-In . SVG Version: 6.00 Build 0)  -->
<!DOCTYPE svg PUBLIC "-//W3C//DTD SVG 1.1//EN" "http://www.w3.org/Graphics/SVG/1.1/DTD/svg11.dtd">
<svg version="1.1" id="图层_1" xmlns="http://www.w3.org/2000/svg" xmlns:xlink="http://www.w3.org/1999/xlink" x="0px" y="0px"
	 width="32px" height="32px" viewBox="0 0 32 32" enable-background="new 0 0 32 32" xml:space="preserve">
<g>
	<g>
		<path fill="#040000" d="M24.137,17.866c-0.062,0.073-0.096,0.107-0.123,0.146c-0.334,0.462-0.67,0.921-0.994,1.389
			c-0.104,0.149-0.168,0.156-0.273,0.004c-0.385-0.558-0.777-1.11-1.167-1.665c-0.364-0.519-0.727-1.038-1.101-1.573
			c-0.041,0.054-0.067,0.085-0.09,0.119c-0.916,1.423-1.835,2.843-2.744,4.271c-0.094,0.147-0.176,0.185-0.342,0.151
			c-0.768-0.151-1.542-0.216-2.324-0.143c-0.985,0.091-1.892,0.364-2.577,1.138c-0.304,0.343-0.508,0.737-0.602,1.197
			c4.679,0,9.333,0,14.027,0C25.26,21.208,24.704,19.555,24.137,17.866z"/>
	</g>
	<g>
		<path fill="#040000" d="M14.787,18.399c0.841,0.006,1.546-0.682,1.56-1.522c0.015-0.859-0.671-1.568-1.524-1.577
			c-0.829-0.008-1.549,0.681-1.56,1.493C13.251,17.673,13.935,18.394,14.787,18.399z"/>
	</g>
	<g>
		<path fill="#040000" d="M28.4,7.6H9.2c-0.884,0-1.6,0.716-1.6,1.6v19.2c0,0.884,0.716,1.6,1.6,1.6c0,0,0.916,0,2.349,0
			c5.124,0,16.852,0,16.852,0c0.883,0,1.6-0.716,1.6-1.6c0,0,0-10.81,0-16.208c0-1.795,0-2.992,0-2.992
			C30,8.316,29.283,7.6,28.4,7.6z M28.32,12.12c0,5.307,0,16.2,0,16.2s-11.723,0-16.771,0c-1.386,0-2.269,0-2.269,0V9.28H28.32
			C28.32,9.28,28.32,10.41,28.32,12.12z"/>
	</g>
	<g>
		<path fill="#040000" d="M3.68,3.68h19.041c0,0,0,0.642,0,1.689h1.68c0-1.095,0-1.769,0-1.769C24.4,2.716,23.684,2,22.8,2H3.6
			C2.716,2,2,2.716,2,3.6v19.2c0,0.884,0.716,1.6,1.6,1.6c0,0,0.675,0,1.769,0v-1.68c-1.045,0-1.689,0-1.689,0V3.68z"/>
	</g>
</g>
</svg>
