<?xml version="1.0" encoding="utf-8"?>
<!DOCTYPE svg PUBLIC "-//W3C//DTD SVG 1.1//EN" "http://www.w3.org/Graphics/SVG/1.1/DTD/svg11.dtd">
<svg version="1.1" id="图形" xmlns="http://www.w3.org/2000/svg" xmlns:xlink="http://www.w3.org/1999/xlink" x="0px" y="0px" width="1024px" height="1024px" viewBox="0 0 1024 1024" enable-background="new 0 0 1024 1024" xml:space="preserve">
  <path fill="#272636" d="M250.352 52.112c0-34.624 27.344-62.816 60.992-62.816l44.032 0c-1.472-5.232-2.304-10.768-2.304-16.496l0-125.568c0-32.832 25.888-59.488 57.792-59.488 31.92 0 57.808 26.656 57.808 59.488L468.672-27.2c0 5.728-0.848 11.264-2.304 16.496l107.328 0c-1.472-5.232-2.304-10.768-2.304-16.496l0-125.568c0-32.832 25.888-59.488 57.792-59.488s57.808 26.656 57.808 59.488L686.992-27.2c0 5.728-0.848 11.264-2.32 16.496l44.032 0c33.664 0 60.992 28.176 60.992 62.816l0 436.16-539.36 0L250.336 52.112zM154.016 488.272c-31.92 0-57.792-26.624-57.792-59.472l0-254.416c0-32.848 25.872-59.472 57.792-59.472 31.904 0 57.792 26.624 57.792 59.472l0 254.4C211.808 461.648 185.92 488.272 154.016 488.272zM886 488.272c-31.92 0-57.776-26.624-57.776-59.472l0-254.416c0-32.848 25.856-59.472 57.776-59.472s57.776 26.624 57.776 59.472l0 254.4C943.776 461.648 917.92 488.272 886 488.272zM652.624 726.32l10.848 16.752 10.688 16.512 24.032 37.088c2.944 4.56 1.728 10.704-2.656 13.744-4.464 3.056-10.432 1.824-13.392-2.752l-25.728-39.76-10.848-16.72L634.592 734.24c-34.816 13.888-73.632 21.68-114.592 21.68-40.944 0-79.776-7.792-114.56-21.664L394.48 751.2l-10.816 16.72L357.872 807.68c-2.944 4.56-8.928 5.792-13.376 2.752-4.4-3.04-5.616-9.184-2.656-13.744l24-37.088 10.704-16.512 10.848-16.752c-81.744-39.184-137.056-113.424-137.056-198.4l539.328 0C789.68 612.896 734.368 687.136 652.624 726.32zM404.448 607.216c-15.968 0-28.896 13.328-28.896 29.744s12.928 29.712 28.896 29.712c15.952 0 28.896-13.296 28.896-29.712S420.4 607.216 404.448 607.216zM635.6 607.216c-15.968 0-28.896 13.328-28.896 29.744s12.928 29.712 28.896 29.712 28.88-13.296 28.88-29.712S651.568 607.216 635.6 607.216z" transform="translate(0, 812) scale(1, -1)"/>
</svg>
